<svg width="151" height="36" viewBox="0 0 151 36" fill="none" xmlns="http://www.w3.org/2000/svg">
<path d="M8.46442 34.9615C6.89632 34.3122 5.42955 33.3822 4.17501 32.2368C2.90623 31.0782 1.8491 29.6977 1.11621 28.1624C0.429116 26.7231 0.0266475 25.1465 0.00127079 23.4879C-0.0250976 21.7634 0.359988 19.9693 1.05344 18.1234C1.74515 16.2824 2.74359 14.3895 3.9465 12.4622C5.11984 10.5824 6.49111 8.66372 7.96121 6.72593C9.43487 4.78336 10.9973 2.83461 12.5596 0.886087L13.27 0L13.9803 0.886087C15.5425 2.83461 17.105 4.78336 18.5786 6.72593C20.0487 8.66372 21.42 10.5824 22.5933 12.4622C23.7962 14.3895 24.7947 16.2824 25.4863 18.1234C26.1799 19.9693 26.5649 21.7634 26.5385 23.4879C26.5132 25.1465 26.1107 26.723 25.4236 28.1624C24.6907 29.6978 23.6337 31.0783 22.3648 32.2368C21.1103 33.3822 19.6435 34.3122 18.0754 34.9615C16.5376 35.5982 14.9016 35.9648 13.2722 36H13.2677C11.6383 35.9648 10.0023 35.5982 8.46442 34.9615ZM21.4889 30.3926L21.532 30.3461L21.6815 30.1753C21.5761 30.1525 21.4834 30.1176 21.3854 30.0807C21.1827 30.0043 20.9536 29.9182 20.5202 29.9322C20.21 29.9422 19.9859 29.9955 19.792 30.083C19.596 30.1715 19.4255 30.2975 19.2273 30.4499C18.7307 30.8317 18.1128 31.3066 16.9425 31.3066C15.7721 31.3066 15.1544 30.8317 14.658 30.4501C14.459 30.2971 14.2878 30.1655 14.0923 30.0747C13.9001 29.9854 13.6776 29.9326 13.3686 29.9326C13.3457 29.9326 13.3293 29.9337 13.3131 29.9346C13.2803 29.9363 13.2594 29.9363 13.2267 29.9346C13.2104 29.9337 13.1941 29.9326 13.1712 29.9326C12.8622 29.9326 12.6397 29.9854 12.4475 30.0747C12.252 30.1655 12.0807 30.2971 11.8822 30.4498L11.8757 30.4548C11.3803 30.8356 10.7627 31.3066 9.59733 31.3066C8.42756 31.3066 7.8097 30.8317 7.31331 30.4503L7.31256 30.4497C7.11427 30.2975 6.94375 30.1715 6.7478 30.083C6.55394 29.9955 6.32981 29.9422 6.01957 29.9322C5.5863 29.9182 5.35721 30.0044 5.15443 30.0806C5.05637 30.1175 4.96367 30.1524 4.85831 30.1753L5.00672 30.3449L5.32646 30.6885C5.3988 30.7655 5.44729 30.8163 5.45825 30.8263C6.54531 31.8185 7.81017 32.6247 9.15811 33.1887C10.4792 33.7414 11.8796 34.0618 13.27 34.0972C14.6602 34.0618 16.0606 33.7414 17.3817 33.1886C18.7297 32.6247 19.9945 31.8185 21.0811 30.8263C21.0942 30.8143 21.1426 30.7637 21.2133 30.6885L21.4889 30.3926ZM23.6366 27.479L23.7004 27.3502L23.7024 27.3518L23.9621 26.8335C23.8214 26.8858 23.6718 26.9123 23.5231 26.9214C22.9984 26.9533 22.4714 26.7607 22.4282 26.7383L22.4236 26.7356C22.3032 26.6661 22.1936 26.5935 22.0919 26.5211C21.9907 26.4491 21.8961 26.3767 21.806 26.3074C21.6072 26.1546 21.436 26.0229 21.2404 25.9321C21.0482 25.8428 20.8256 25.7901 20.5165 25.7901C20.2075 25.7901 19.985 25.8428 19.7928 25.9321C19.5973 26.0229 19.426 26.1546 19.2273 26.3074L19.2254 26.3086C18.7292 26.6898 18.1115 27.164 16.9425 27.164C15.7761 27.164 15.1584 26.6918 14.6628 26.3109L14.6576 26.3074C14.459 26.1546 14.2878 26.0229 14.0923 25.9321C13.9001 25.8428 13.6776 25.7901 13.3686 25.7901C13.3465 25.7901 13.3297 25.7911 13.3134 25.7921H13.2264C13.21 25.7911 13.1933 25.7901 13.1712 25.7901C12.8623 25.7901 12.6397 25.8428 12.4476 25.9321C12.2521 26.0229 12.0808 26.1546 11.8822 26.3074L11.8802 26.3086C11.384 26.6898 10.7663 27.164 9.59733 27.164C8.43088 27.164 7.81326 26.6918 7.31763 26.3109L7.31244 26.3074C7.11375 26.1546 6.94246 26.0229 6.74698 25.9321C6.55481 25.8428 6.33226 25.7901 6.02325 25.7901C5.71418 25.7901 5.49156 25.8428 5.2994 25.9321C5.10385 26.0229 4.93251 26.1547 4.73388 26.3074C4.64374 26.3767 4.54912 26.4491 4.44797 26.5211C4.345 26.5944 4.23521 26.6672 4.11667 26.7356L4.11166 26.7383C4.06843 26.7607 3.54147 26.9533 3.01672 26.9214C2.86802 26.9123 2.71844 26.8859 2.57774 26.8335L2.83739 27.3519L2.83944 27.3502L2.91072 27.494C2.97052 27.6144 3.02775 27.7296 3.09384 27.8498C3.25608 28.1451 3.54671 28.4376 3.89184 28.5876C4.1655 28.7065 4.47398 28.734 4.7778 28.5968C4.98881 28.5016 5.16429 28.4277 5.3561 28.377C5.54966 28.3258 5.75542 28.299 6.02325 28.299C6.60755 28.299 7.05646 28.419 7.42194 28.5869C7.78602 28.7542 8.06207 28.9666 8.30808 29.1556C8.50672 29.3084 8.678 29.4401 8.8736 29.5309C9.06576 29.6202 9.28832 29.673 9.59733 29.673C10.2137 29.673 10.4959 29.456 10.8864 29.1558C11.3827 28.7741 12.0006 28.299 13.1712 28.299L13.27 28.3019L13.3686 28.299C14.5393 28.299 15.1571 28.7741 15.6534 29.1558C16.0439 29.456 16.3262 29.673 16.9425 29.673C17.5588 29.673 17.841 29.456 18.2316 29.1557L18.24 29.1492C18.484 28.9617 18.758 28.7523 19.1178 28.5869C19.4833 28.419 19.9322 28.299 20.5165 28.299C20.7843 28.299 20.9901 28.3258 21.1837 28.377C21.3755 28.4277 21.551 28.5016 21.762 28.5968C22.0659 28.734 22.3744 28.7064 22.6479 28.5876C22.993 28.4376 23.2837 28.1451 23.4459 27.8498C23.5126 27.7287 23.5702 27.6125 23.6306 27.4911L23.6366 27.479ZM9.80484 21.2064C8.92079 22.0904 8.37319 23.311 8.37319 24.657C8.37319 24.7399 8.37575 24.8185 8.38001 24.8938C8.38363 24.9563 8.38836 25.0178 8.39384 25.0785C8.56477 25.2088 8.72006 25.3202 8.89577 25.3984C9.08245 25.4815 9.29964 25.5304 9.59733 25.5304C9.90635 25.5304 10.1289 25.4776 10.3211 25.3883C10.5165 25.2976 10.6877 25.1658 10.8864 25.0131L10.8884 25.0119C11.3845 24.6307 12.0023 24.1564 13.1712 24.1564L13.27 24.1593L13.3686 24.1564C14.5376 24.1564 15.1553 24.6307 15.6514 25.0119L15.6534 25.0131C15.8521 25.1658 16.0233 25.2976 16.2188 25.3883C16.4109 25.4776 16.6335 25.5304 16.9425 25.5304C17.2315 25.5304 17.4451 25.484 17.6288 25.4046C17.8011 25.3303 17.9518 25.2253 18.1147 25.102C18.1209 25.0373 18.1262 24.9718 18.1303 24.9054C18.135 24.8259 18.1379 24.7434 18.1379 24.657C18.1379 23.311 17.5903 22.0904 16.7062 21.2064C15.8222 20.3223 14.6016 19.7747 13.2555 19.7747C11.9095 19.7747 10.6889 20.3223 9.80484 21.2064ZM9.18623 8.26556C7.86209 10.0257 6.6289 11.7661 5.56565 13.4697C4.44721 15.2617 3.51918 17.0077 2.87706 18.6844C2.23698 20.3557 1.88113 21.9574 1.90417 23.4656C1.90587 23.5793 1.91007 23.6956 1.91654 23.8139C1.92308 23.9325 1.93177 24.0487 1.9425 24.1622C1.96024 24.3498 2.02137 24.5205 2.11349 24.6672C2.22975 24.8524 2.39561 25 2.58614 25.096C2.7762 25.1917 2.99076 25.2363 3.2048 25.216C3.36634 25.2007 3.52834 25.1483 3.68002 25.0531L3.71076 25.0326L3.73865 25.0126C3.98459 24.8237 4.26065 24.6115 4.62444 24.4443C4.98998 24.2764 5.43888 24.1564 6.02325 24.1564C6.18758 24.1564 6.34142 24.1662 6.4858 24.1839C6.57932 24.1953 6.66892 24.2102 6.75497 24.2279C6.86464 22.5505 7.61177 21.0441 8.75605 19.9496C9.92665 18.8299 11.5124 18.1411 13.2555 18.1411C15.0003 18.1411 16.5872 18.8309 17.758 19.9521C18.9018 21.0474 19.648 22.555 19.7563 24.2339C19.8456 24.2148 19.9391 24.1987 20.0371 24.1862C20.1882 24.1671 20.3477 24.1564 20.5165 24.1564C21.1009 24.1564 21.5498 24.2764 21.9153 24.4443C22.2781 24.6111 22.5547 24.8236 22.801 25.0129L22.8288 25.0328L22.8594 25.0531C23.0115 25.1483 23.1736 25.2007 23.3351 25.216C23.5491 25.2363 23.7636 25.1917 23.9537 25.0959C24.1442 24.9999 24.3101 24.8524 24.4264 24.6671C24.5185 24.5205 24.5796 24.3498 24.5973 24.1622C24.6081 24.0487 24.6168 23.9325 24.6233 23.8139C24.6298 23.6956 24.634 23.5793 24.6357 23.4656C24.6587 21.9574 24.3029 20.3557 23.6628 18.6844C23.0207 17.0077 22.0926 15.2617 20.9742 13.4697C19.9109 11.7661 18.6777 10.0257 17.3536 8.26556C16.0587 6.54433 14.6714 4.79724 13.27 3.04655C11.8685 4.79724 10.4811 6.54433 9.18623 8.26556Z" fill="#28445C"/>
<path d="M7.70814 16.4497C8.20546 16.7109 8.70249 16.8853 9.19818 16.8852C9.71651 16.8852 10.2114 16.6915 10.5803 16.4C10.9939 16.0728 11.2611 15.6128 11.2612 15.1341C11.2612 14.6555 10.9939 14.1955 10.5803 13.8684C10.2116 13.5768 9.71657 13.383 9.19813 13.3831C8.2393 13.3831 7.30485 14.0226 6.37058 14.6622L5.68115 15.134L6.37058 15.606C6.814 15.9096 7.25771 16.2133 7.70814 16.4497ZM9.17969 14.5811C9.41269 14.5812 9.63314 14.6666 9.79596 14.7953C9.93037 14.9016 10.0173 15.0264 10.0172 15.1341C10.0174 15.2419 9.93038 15.3667 9.79603 15.473C9.63327 15.6016 9.41269 15.6871 9.17969 15.6871C8.91682 15.6871 8.61989 15.5771 8.3058 15.4123C8.15162 15.3313 7.99294 15.2367 7.83158 15.1341C8.32348 14.8215 8.7914 14.5812 9.17969 14.5811Z" fill="#28445C"/>
<path d="M16.0072 16.3999C16.3759 16.6915 16.8708 16.8853 17.3893 16.8852C18.3481 16.8853 19.2826 16.2457 20.2168 15.6061L20.9062 15.1343L20.2168 14.6623C19.7734 14.3587 19.3297 14.055 18.8793 13.8185C18.3819 13.5574 17.8849 13.3831 17.3892 13.3831C16.8708 13.3831 16.3759 13.5768 16.0071 13.8683C15.5935 14.1955 15.3263 14.6555 15.3262 15.1341C15.3262 15.6128 15.5935 16.0728 16.0072 16.3999ZM16.7914 14.7953C16.9541 14.6667 17.1748 14.5811 17.4076 14.5811C17.6706 14.5812 17.9675 14.6912 18.2815 14.856C18.4358 14.9369 18.5945 15.0316 18.7558 15.1342C18.2639 15.4468 17.796 15.6871 17.4078 15.6871C17.1747 15.6871 16.9542 15.6016 16.7914 15.473C16.657 15.3667 16.5701 15.242 16.5701 15.1341C16.57 15.0264 16.657 14.9016 16.7914 14.7953Z" fill="#28445C"/>
<path d="M13.3005 14.0586C12.7054 14.0586 12.2393 14.5311 12.2393 15.134C12.2393 15.7371 12.7054 16.2095 13.3005 16.2095C13.8879 16.2095 14.3482 15.7371 14.3482 15.134C14.3482 14.5311 13.8879 14.0586 13.3005 14.0586Z" fill="#28445C"/>
<path d="M13.2937 13.0635C13.8471 13.0635 14.3792 12.7545 14.7574 12.2762C15.0946 11.8498 15.3185 11.2776 15.3185 10.6781C15.3185 9.56944 14.5789 8.48903 13.8395 7.40875L13.2939 6.61157L12.7482 7.40875C12.3972 7.92141 12.046 8.43449 11.7725 8.95527C11.4705 9.53036 11.269 10.105 11.269 10.6781C11.269 11.2776 11.493 11.8498 11.8302 12.2762C12.2084 12.7545 12.7405 13.0635 13.2937 13.0635ZM12.9413 9.57073C13.044 9.3753 13.164 9.17415 13.2939 8.96973C13.6899 9.59307 13.9946 10.186 13.9946 10.6781C13.9946 10.9734 13.8862 11.2528 13.7232 11.4591C13.5884 11.6294 13.4303 11.7396 13.2937 11.7396C13.1572 11.7396 12.9991 11.6294 12.8644 11.4591C12.7014 11.2529 12.5929 10.9734 12.5929 10.6781C12.5929 10.345 12.7325 9.9687 12.9413 9.57073Z" fill="#28445C"/>
<path d="M150.076 20.4671C150.076 15.8353 144.678 13.2623 141.081 16.1799C138.398 18.3565 138.341 22.4596 141.012 24.6992C143.568 26.8427 147.323 26.2238 149.191 23.4577L147.273 22.4101C145.542 24.6958 142.181 24.0324 141.372 21.4864L141.324 21.3346H150.008L150.076 20.4671ZM67.3553 20.4972C67.3553 19.1927 65.8417 18.6505 65.0055 19.4977C64.1655 20.3488 64.708 21.9026 65.9893 21.9026C66.7666 21.9026 67.3553 21.2763 67.3553 20.4972ZM135.41 22.3866C134.261 24.0912 131.801 24.3592 130.358 22.8318C128.285 20.6389 129.895 17.1034 132.602 17.1034C133.7 17.1034 134.879 17.659 135.427 18.5671L135.677 19.0137L137.569 17.9227C137.024 16.9267 136.439 16.2401 135.407 15.6661C131.692 13.5998 127.201 16.2013 127.201 20.4674C127.201 22.7003 128.536 24.7434 130.588 25.5897C131.232 25.855 131.923 25.9908 132.629 25.988L132.629 25.9876C134.582 25.9876 136.339 25.0868 137.341 23.4091L137.569 23.0021L135.664 21.9401L135.41 22.3866ZM125.111 25.7888V20.3486C125.111 14.587 118.842 13.6772 116.25 16.4383C115.359 17.3868 114.848 18.7434 114.848 20.3687V25.7888H117.062V20.4674C117.062 16.8586 120.575 16.316 122.065 18.0247C122.631 18.6734 122.897 19.5837 122.897 20.4875V25.7888H125.111ZM109.98 24.241V25.7888H112.135V20.4482C112.135 15.3868 106.009 13.196 102.639 16.5416C99.2805 19.877 101.482 25.9873 106.415 25.9873C107.616 25.9873 109.045 25.4035 109.763 24.1822L109.98 23.8129V24.241ZM106.575 23.8326C103.636 23.8326 102.128 20.2128 104.224 18.0907C106.324 15.9648 109.921 17.4988 109.921 20.4674C109.921 22.3178 108.424 23.8326 106.575 23.8326ZM91.6127 25.7888H93.7673V20.4482C93.7673 15.3868 87.6416 13.1959 84.2722 16.5416C80.9132 19.877 83.1152 25.9873 88.0482 25.9873C89.2487 25.9873 90.678 25.4035 91.3957 24.1822L91.6127 23.8129V25.7888ZM88.2074 23.8326C85.2684 23.8326 83.7603 20.2128 85.8569 18.0907C87.9572 15.9648 91.5533 17.4986 91.5533 20.4674C91.5533 22.3178 90.0564 23.8326 88.2074 23.8326ZM98.5807 10.7346H96.3667V25.7888H98.5807V10.7346ZM75.345 26.0074C78.4477 26.0074 80.8841 23.5894 80.8841 20.4875C80.8841 15.5625 75.443 13.4807 72.1889 16.0501L72.0003 16.1991V10.7346H69.7862V20.4875C69.7862 23.5943 72.2363 26.0074 75.345 26.0074ZM75.345 17.1034C78.2792 17.1034 79.7945 20.7397 77.6955 22.865C75.5954 24.9915 72.0003 23.4575 72.0003 20.4875C72.0003 18.6313 73.4921 17.1034 75.345 17.1034ZM62.2781 20.4875C62.2781 15.5626 56.8369 13.4806 53.5829 16.0501L53.3942 16.1991V10.7346H51.1792V20.4875C51.1792 25.5674 57.3045 27.7669 60.6742 24.4085C61.6701 23.416 62.2781 22.0359 62.2781 20.4875ZM53.3942 20.4875C53.3942 17.4999 56.9906 15.9587 59.0896 18.0966C61.1837 20.2295 59.6826 23.8527 56.7392 23.8527C54.8905 23.8527 53.3942 22.3376 53.3942 20.4875ZM45.7877 25.7888H48.0015V15.1665H45.7877V25.7888ZM46.8946 11.0129C45.6135 11.0129 45.0707 12.5665 45.9108 13.4177C46.7468 14.2649 48.2606 13.7229 48.2606 12.4183C48.2606 11.6391 47.6719 11.0129 46.8946 11.0129ZM39.6567 19.356C38.7597 19.1493 37.6505 18.9461 37.6505 18.242C37.6505 17.1462 39.5365 16.925 40.4569 17.3926C40.9992 17.6681 41.1909 18.143 41.4686 18.6605L43.2712 17.4896C42.828 16.6329 42.4238 16.0508 41.5345 15.566C39.1333 14.257 35.4356 15.3669 35.4356 18.2621C35.4356 22.2414 41.1597 20.9139 41.1597 22.6538C41.1597 23.9735 38.8577 24.0557 37.9427 23.5413C37.3348 23.1995 37.0904 22.609 36.7636 21.9941L34.9712 23.16C35.4598 24.1244 35.8518 24.7864 36.8371 25.3533C39.2718 26.7545 43.3747 25.749 43.3747 22.6346C43.3747 20.2355 41.2453 19.706 39.6567 19.356ZM141.436 19.2652C142.53 16.4191 146.584 16.4188 147.677 19.2652L147.738 19.4234H141.375L141.436 19.2652Z" fill="#28445C"/>
</svg>
