<svg width="202" height="48" viewBox="0 0 202 48" fill="none" xmlns="http://www.w3.org/2000/svg">
<path d="M61.8689 33.0763H62.862V31.9695H61.8689V33.0763Z" fill="#28445C"/>
<path d="M61.8689 39.7603H62.862V34.1865H61.8689V39.7603Z" fill="#28445C"/>
<path d="M81.5172 34.1973C79.758 34.1973 78.8496 35.2951 78.8496 36.9754C78.8496 38.7125 79.7238 39.8021 81.5172 39.8021C83.256 39.8021 84.1546 38.6246 84.1546 36.954C84.1546 35.2805 83.2488 34.1973 81.5172 34.1973ZM81.4867 39.0616C80.4423 39.0616 79.8253 38.2393 79.8253 36.9754C79.8253 35.767 80.6105 34.9889 81.4867 34.9844C82.3619 34.98 83.1508 35.6463 83.1508 36.9629C83.1508 38.073 82.5225 39.0616 81.4867 39.0616Z" fill="#28445C"/>
<path d="M88.1011 34.1865C87.5243 34.1865 86.7434 34.4483 86.3697 34.9797V34.1865H85.3919L85.3872 41.7035H86.3697V38.8526C86.7878 39.4459 87.3973 39.7741 88.1224 39.7603C89.6692 39.7307 90.4592 38.4605 90.4592 36.9751C90.4592 36.0995 90.2511 35.4163 89.8362 34.9251C89.4199 34.4321 88.8416 34.1865 88.1011 34.1865ZM88.0423 38.8842C87.2205 38.9317 86.3527 38.2732 86.3697 36.9751C86.3839 35.8766 86.9377 34.9797 87.9547 34.9797C89.0916 34.9797 89.4448 35.9506 89.4448 36.9751C89.4448 38.2671 88.7019 38.8459 88.0423 38.8842Z" fill="#28445C"/>
<path d="M94.124 34.1743C93.602 34.1849 93.1672 34.3276 92.8183 34.6195L92.8212 31.9695H91.8281V39.7606H92.8212V36.3028C92.8212 35.5246 93.3467 34.9801 94.1251 34.9801C94.9506 34.9801 95.4372 35.4579 95.4372 36.2903V39.7606H96.4197V36.3544C96.4197 34.9801 95.6268 34.1441 94.124 34.1743Z" fill="#28445C"/>
<path d="M108.46 34.1973C106.701 34.1973 105.792 35.2951 105.792 36.9754C105.792 38.7125 106.667 39.8021 108.46 39.8021C110.199 39.8021 111.098 38.6246 111.098 36.954C111.098 35.2805 110.192 34.1973 108.46 34.1973ZM108.43 39.0616C107.385 39.0616 106.768 38.2393 106.768 36.9754C106.768 35.767 107.554 34.9889 108.43 34.9844C109.305 34.98 110.094 35.6463 110.094 36.9629C110.094 38.073 109.465 39.0616 108.43 39.0616Z" fill="#28445C"/>
<path d="M127.565 34.1865C126.773 34.1865 126.226 34.4376 125.801 34.9374C125.376 35.4375 125.162 36.1582 125.162 37.0997C125.162 37.8933 125.335 38.5095 125.675 38.9494C126.058 39.4462 126.661 39.7189 127.565 39.7603C128.169 39.7878 128.799 39.6334 129.269 39.2871C129.669 38.992 129.958 38.5599 129.962 37.9557H128.97C128.914 38.7555 128.187 39.0613 127.565 39.0613C126.773 39.0613 126.196 38.3837 126.196 37.4735V37.1549H129.946C129.953 37.0748 129.958 36.9893 129.962 36.9004C129.965 36.8096 129.967 36.6779 129.967 36.5034C129.967 35.7881 129.759 35.2235 129.342 34.8093C128.925 34.3943 128.291 34.1865 127.565 34.1865ZM126.196 36.4607C126.196 35.618 126.815 34.9797 127.565 34.9797C128.485 34.9797 128.97 35.7195 128.964 36.4607H126.196Z" fill="#28445C"/>
<path d="M133.476 34.1865C132.443 34.1865 131.47 34.5364 131.47 35.7273L132.454 35.7348C132.469 34.728 134.6 34.7266 134.6 35.6937V36.4546H133.668C132.887 36.4546 132.27 36.5101 131.819 36.8416C131.368 37.1735 131.17 37.621 131.17 38.187C131.17 38.6747 131.304 39.0648 131.63 39.3599C131.957 39.6555 132.392 39.8029 132.933 39.8029C133.436 39.8029 134.257 39.7603 134.6 39.2674C134.6 39.3885 134.595 39.7419 134.6 39.7603H135.594V35.8541C135.594 34.4879 134.679 34.1865 133.476 34.1865ZM134.6 37.5481C134.6 38.0197 134.478 38.3109 134.23 38.5593C133.984 38.8071 133.629 38.9312 133.166 38.9312C132.66 38.9312 132.163 38.6857 132.163 38.1387C132.163 37.2834 133.056 37.1549 133.768 37.1549H134.6V37.5481Z" fill="#28445C"/>
<path d="M146.572 34.1743C146.05 34.1849 145.615 34.3276 145.266 34.6195L145.269 31.9695H144.276V39.7606H145.269V36.3028C145.269 35.5246 145.794 34.9801 146.573 34.9801C147.398 34.9801 147.885 35.4579 147.885 36.2903V39.7606H148.867V36.3544C148.867 34.9801 148.075 34.1441 146.572 34.1743Z" fill="#28445C"/>
<path d="M137.4 39.7606H138.393V31.9695H137.4V39.7606Z" fill="#28445C"/>
<path d="M141.602 32.7864H140.62V34.1868H139.711V34.98H140.62V38.6176C140.62 39.4242 141.195 39.7606 141.768 39.7606C141.893 39.7606 142.761 39.7606 142.798 39.7606C142.798 39.3179 142.798 38.9435 142.798 38.9435C142.613 38.9463 142.469 38.9435 142.284 38.9435C141.69 38.9435 141.602 38.6924 141.602 38.2688V34.98H142.798V34.1868H141.602V32.7864Z" fill="#28445C"/>
<path d="M121.498 34.1743C120.976 34.1849 120.541 34.3276 120.192 34.6195L120.195 31.9695H119.202V39.7606H120.195V36.3028C120.195 35.5246 120.72 34.9801 121.499 34.9801C122.324 34.9801 122.811 35.4579 122.811 36.2903V39.7606H123.793V36.3544C123.793 34.9801 123.001 34.1441 121.498 34.1743Z" fill="#28445C"/>
<path d="M114.279 31.9695C113.439 31.9914 112.985 32.4208 112.985 33.4588V34.1868H112.002V34.98H112.985V39.7606H113.978V34.98H115.215V34.1868H113.978V33.4803C113.978 33.0785 114.104 32.7864 114.606 32.7864C114.773 32.7864 115.011 32.7864 115.215 32.7864V31.9695C114.914 31.9695 114.51 31.9635 114.279 31.9695Z" fill="#28445C"/>
<path d="M100.238 38.5644L98.4538 34.1868H97.4519L99.7166 39.6749L98.8926 41.7036H99.8108L102.984 34.1878H102.004L100.238 38.5644Z" fill="#28445C"/>
<path d="M76.6599 36.6995L75.4392 36.3649C75.1582 36.2881 74.9539 36.1965 74.8341 36.0926C74.7124 35.9873 74.6509 35.8471 74.6509 35.6726C74.6509 35.1948 75.2521 34.98 75.7203 34.98C76.1959 34.98 76.7436 35.1944 76.7436 35.726V35.767H77.726C77.7296 35.7492 77.7344 35.7285 77.7349 35.7064C77.7355 35.6863 77.7368 35.6513 77.7368 35.6103C77.7368 35.1727 77.5615 34.8254 77.2153 34.5746C76.87 34.3242 76.3948 34.1973 75.7934 34.1973C75.1438 34.1973 74.6191 34.3494 74.2218 34.653C73.8261 34.9556 73.6257 35.354 73.6257 35.8436C73.6257 36.1976 73.7449 36.4919 73.9782 36.7244C74.2104 36.9558 74.5714 37.1295 75.0477 37.2406L76.1848 37.5057C76.4056 37.5573 76.5685 37.6472 76.6725 37.762C76.7763 37.8767 76.8291 38.0254 76.8291 38.2104C76.8291 38.4614 76.7258 38.6643 76.5195 38.8209C76.3131 38.9774 76.0443 39.0557 75.7097 39.0557C75.3662 39.0557 75.0911 38.9656 74.8858 38.7889C74.6805 38.6121 74.5761 38.3734 74.5761 38.0841V38.0628H73.583V38.1872C73.583 38.7443 73.7595 39.152 74.1081 39.4116C74.4563 39.671 75.005 39.8032 75.7525 39.8032C76.4108 39.8032 76.9332 39.65 77.3185 39.3494C77.7031 39.0492 77.8968 38.6429 77.8968 38.1356C77.8968 37.762 77.7945 37.4542 77.5943 37.2192C77.3948 36.9852 77.0804 36.8147 76.6599 36.6995Z" fill="#28445C"/>
<path d="M69.8862 34.1973C68.127 34.1973 67.2185 35.2951 67.2185 36.9754C67.2185 38.7125 68.0929 39.8021 69.8862 39.8021C71.6251 39.8021 72.5235 38.6246 72.5235 36.954C72.5235 35.2805 71.6179 34.1973 69.8862 34.1973ZM69.8557 39.0616C68.8114 39.0616 68.1944 38.2393 68.1944 36.9754C68.1944 35.767 68.9805 34.9878 69.8557 34.9844C70.7296 34.9811 71.5199 35.6463 71.5199 36.9629C71.5199 38.073 70.8917 39.0616 69.8557 39.0616Z" fill="#28445C"/>
<path d="M64.821 39.7606H65.8139V31.9695H64.821V39.7606Z" fill="#28445C"/>
<path d="M57.8204 34.1743C57.2994 34.1844 56.8638 34.3276 56.5148 34.6195L56.5178 31.9695H55.5247V39.7606H56.5178V36.3028C56.5178 35.526 57.0432 34.9801 57.8217 34.9801C58.6471 34.9801 59.1337 35.4579 59.1337 36.2903V39.7606H60.1162V36.3544C60.1162 34.9814 59.323 34.1451 57.8204 34.1743Z" fill="#28445C"/>
<path d="M51.777 34.1865C51.2002 34.1865 50.4193 34.4483 50.0456 34.9797V34.1865H49.0677L49.0632 41.7035H50.0456V38.8526C50.4636 39.4459 51.0743 39.7735 51.7984 39.7603C53.3444 39.7319 54.1351 38.4605 54.1351 36.9751C54.1351 36.0995 53.9261 35.4153 53.5123 34.9251C53.0967 34.4329 52.5175 34.1865 51.777 34.1865ZM51.7183 38.8842C50.8971 38.9308 50.0305 38.2718 50.0456 36.9751C50.0583 35.8785 50.6136 34.9797 51.6306 34.9797C52.7676 34.9797 53.1208 35.9506 53.1208 36.9751C53.1208 38.2671 52.3769 38.847 51.7183 38.8842Z" fill="#28445C"/>
<path d="M201.19 18.9614C201.19 12.773 193.977 9.33519 189.172 13.2334C185.586 16.1414 185.511 21.6236 189.079 24.6159C192.495 27.4798 197.512 26.6529 200.008 22.9571L197.445 21.5574C195.132 24.6114 190.641 23.7249 189.56 20.3233L189.496 20.1205H201.098L201.19 18.9614ZM90.6675 19.0017C90.6675 17.2587 88.6451 16.5342 87.5279 17.6663C86.4056 18.8034 87.1305 20.8794 88.8424 20.8794C89.8809 20.8794 90.6675 20.0426 90.6675 19.0017ZM181.594 21.526C180.059 23.8035 176.773 24.1615 174.844 22.1208C172.075 19.1909 174.226 14.4672 177.842 14.4672C179.31 14.4672 180.885 15.2096 181.618 16.4228L181.951 17.0196L184.48 15.5619C183.751 14.2312 182.969 13.3137 181.59 12.5468C176.627 9.78617 170.627 13.2619 170.627 18.9618C170.627 21.9451 172.41 24.6749 175.153 25.8056C176.012 26.1602 176.936 26.3416 177.879 26.3379L177.879 26.3373C180.489 26.3373 182.836 25.1338 184.175 22.8921L184.48 22.3484L181.934 20.9295L181.594 21.526ZM167.834 26.0717V18.8032C167.834 11.1051 159.459 9.88955 155.995 13.5786C154.804 14.8459 154.122 16.6585 154.122 18.83V26.0717H157.08V18.9618C157.08 14.1401 161.773 13.4151 163.764 15.6981C164.52 16.5649 164.876 17.7812 164.876 18.9888V26.0717H167.834ZM147.618 24.0036V26.0717H150.497V18.9361C150.497 12.1736 142.312 9.2466 137.81 13.7166C133.322 18.173 136.264 26.3369 142.855 26.3369C144.459 26.3369 146.369 25.5569 147.328 23.9251L147.618 23.4318V24.0036ZM143.068 23.458C139.141 23.458 137.126 18.6216 139.927 15.7864C142.734 12.946 147.538 14.9955 147.538 18.9618C147.538 21.4342 145.538 23.458 143.068 23.458ZM123.078 26.0717H125.956V18.9361C125.956 12.1737 117.772 9.24652 113.27 13.7166C108.782 18.173 111.724 26.3369 118.315 26.3369C119.919 26.3369 121.829 25.5569 122.788 23.9251L123.078 23.4318V26.0717ZM118.528 23.458C114.601 23.458 112.586 18.6216 115.387 15.7864C118.193 12.946 122.998 14.9953 122.998 18.9618C122.998 21.4341 120.998 23.458 118.528 23.458ZM132.387 5.95801H129.429V26.0717H132.387V5.95801ZM101.342 26.3637C105.488 26.3637 108.743 23.1331 108.743 18.9888C108.743 12.4085 101.473 9.62695 97.1256 13.0599L96.8735 13.2589V5.95801H93.9153V18.9888C93.9153 23.1396 97.1889 26.3637 101.342 26.3637ZM101.342 14.4672C105.263 14.4672 107.287 19.3257 104.483 22.1652C101.677 25.0064 96.8735 22.9568 96.8735 18.9888C96.8735 16.5086 98.8668 14.4672 101.342 14.4672ZM83.8838 18.9888C83.8838 12.4085 76.614 9.62679 72.2662 13.0599L72.0142 13.2589V5.95801H69.0548V18.9888C69.0548 25.7759 77.2387 28.7146 81.741 24.2275C83.0715 22.9015 83.8838 21.0575 83.8838 18.9888ZM72.0142 18.9888C72.0142 14.997 76.8192 12.9377 79.6237 15.7942C82.4216 18.644 80.416 23.4848 76.4835 23.4848C74.0134 23.4848 72.0142 21.4605 72.0142 18.9888ZM61.8512 26.0717H64.8091V11.8793H61.8512V26.0717ZM63.3301 6.32981C61.6185 6.32981 60.8933 8.40545 62.0157 9.54287C63.1326 10.6747 65.1552 9.95061 65.1552 8.20749C65.1552 7.16652 64.3687 6.32981 63.3301 6.32981ZM53.6596 17.4769C52.4611 17.2007 50.9792 16.9292 50.9792 15.9885C50.9792 14.5245 53.4991 14.2289 54.7287 14.8536C55.4534 15.2217 55.7095 15.8563 56.0805 16.5477L58.489 14.9832C57.8968 13.8385 57.3568 13.0608 56.1687 12.4131C52.9603 10.6641 48.0198 12.1471 48.0198 16.0153C48.0198 21.332 55.6678 19.5584 55.6678 21.883C55.6678 23.6462 52.5921 23.7561 51.3696 23.0688C50.5574 22.6121 50.2309 21.8232 49.7943 21.0016L47.3994 22.5593C48.0522 23.8479 48.576 24.7323 49.8924 25.4898C53.1454 27.3619 58.6273 26.0185 58.6273 21.8574C58.6273 18.652 55.7822 17.9445 53.6596 17.4769ZM189.646 17.3556C191.108 13.553 196.524 13.5526 197.984 17.3556L198.066 17.5669H189.565L189.646 17.3556Z" fill="#28445C"/>
<path d="M11.2859 46.6153C9.1951 45.7496 7.2394 44.5096 5.56667 42.9824C3.87497 41.4376 2.46547 39.597 1.48828 37.5499C0.572155 35.6308 0.03553 33.5287 0.00169439 31.3172C-0.0334635 29.0179 0.479984 26.6257 1.40459 24.1646C2.32686 21.7099 3.65812 19.1859 5.262 16.6163C6.82645 14.1098 8.65482 11.5516 10.6149 8.96791C12.5798 6.37781 14.6631 3.77948 16.7461 1.18145L17.6933 0L18.6404 1.18145C20.7234 3.77948 22.8066 6.37781 24.7715 8.96791C26.7316 11.5516 28.56 14.1099 30.1244 16.6163C31.7283 19.1859 33.0596 21.7099 33.9818 24.1646C34.9065 26.6258 35.4198 29.0179 35.3847 31.3172C35.3509 33.5287 34.8142 35.6306 33.8982 37.5499C32.921 39.597 31.5116 41.4377 29.8198 42.9824C28.1471 44.5096 26.1913 45.7496 24.1006 46.6153C22.0501 47.4642 19.8688 47.9531 17.6963 48H17.6902C15.5177 47.9531 13.3363 47.4642 11.2859 46.6153ZM28.6519 40.5235L28.7093 40.4615L28.9086 40.2337C28.7682 40.2033 28.6446 40.1568 28.5139 40.1076C28.2436 40.0058 27.9381 39.8909 27.3603 39.9096C26.9466 39.9229 26.6479 39.994 26.3894 40.1107C26.128 40.2287 25.9006 40.3967 25.6365 40.5999C24.9742 41.1089 24.1503 41.7421 22.59 41.7421C21.0295 41.7421 20.2058 41.1089 19.544 40.6001C19.2787 40.3961 19.0504 40.2206 18.7897 40.0996C18.5335 39.9806 18.2367 39.9102 17.8248 39.9102C17.7943 39.9102 17.7724 39.9116 17.7507 39.9128C17.7071 39.915 17.6792 39.915 17.6356 39.9128C17.6139 39.9116 17.5921 39.9102 17.5617 39.9102C17.1496 39.9102 16.8529 39.9806 16.5967 40.0996C16.336 40.2206 16.1077 40.3961 15.8429 40.5997L15.8343 40.6064C15.1737 41.1142 14.3503 41.7421 12.7964 41.7421C11.2367 41.7421 10.4129 41.109 9.75109 40.6004L9.75007 40.5997C9.48569 40.3967 9.25833 40.2287 8.99706 40.1107C8.73859 39.994 8.43975 39.9229 8.0261 39.9096C7.4484 39.8909 7.14295 40.0059 6.87258 40.1075C6.74182 40.1567 6.61822 40.2032 6.47775 40.2337L6.67563 40.4599L7.10195 40.9179C7.1984 41.0206 7.26305 41.0884 7.27767 41.1017C8.72708 42.4247 10.4136 43.4996 12.2108 44.2516C13.9722 44.9886 15.8395 45.4157 17.6933 45.4629C19.5469 45.4157 21.4142 44.9885 23.1756 44.2515C24.973 43.4996 26.6594 42.4247 28.1082 41.1017C28.1257 41.0858 28.1901 41.0183 28.2844 40.9179L28.6519 40.5235ZM31.5154 36.6386L31.6005 36.4669L31.6033 36.4691L31.9495 35.778C31.7619 35.8477 31.5624 35.8831 31.3641 35.8952C30.6645 35.9377 29.9619 35.681 29.9043 35.6511L29.8982 35.6475C29.7376 35.5548 29.5915 35.458 29.4558 35.3615C29.3209 35.2655 29.1948 35.1689 29.0746 35.0765C28.8096 34.8728 28.5813 34.6972 28.3206 34.5761C28.0643 34.4571 27.7675 34.3867 27.3554 34.3867C26.9434 34.3867 26.6467 34.4571 26.3904 34.5761C26.1298 34.6972 25.9014 34.8728 25.6365 35.0765L25.6338 35.0781C24.9723 35.5864 24.1486 36.2187 22.59 36.2187C21.0347 36.2187 20.2113 35.5891 19.5504 35.0813L19.5435 35.0765C19.2786 34.8728 19.0503 34.6972 18.7897 34.5761C18.5335 34.4571 18.2367 34.3867 17.8248 34.3867C17.7953 34.3867 17.773 34.3881 17.7511 34.3895H17.6352C17.6133 34.3881 17.5911 34.3867 17.5617 34.3867C17.1497 34.3867 16.853 34.4571 16.5968 34.5761C16.3361 34.6972 16.1077 34.8728 15.8429 35.0765L15.8402 35.0781C15.1787 35.5864 14.3551 36.2187 12.7964 36.2187C11.2412 36.2187 10.4177 35.5891 9.75684 35.0813L9.74992 35.0765C9.48499 34.8728 9.25662 34.6972 8.99597 34.5761C8.73975 34.4571 8.44301 34.3867 8.031 34.3867C7.6189 34.3867 7.32208 34.4571 7.06586 34.5761C6.80514 34.6972 6.57668 34.8729 6.31183 35.0765C6.19166 35.1689 6.0655 35.2655 5.93062 35.3615C5.79333 35.4591 5.64695 35.5563 5.48889 35.6475L5.48221 35.6511C5.42457 35.681 4.72195 35.9377 4.0223 35.8952C3.82403 35.8831 3.62459 35.8478 3.43698 35.778L3.78319 36.4691L3.78592 36.467L3.88097 36.6587C3.96069 36.8192 4.037 36.9729 4.12512 37.1331C4.34144 37.5268 4.72895 37.9168 5.18912 38.1167C5.554 38.2753 5.96531 38.3121 6.37041 38.1291C6.65175 38.0021 6.88572 37.9035 7.14147 37.8359C7.39955 37.7677 7.67389 37.732 8.031 37.732C8.81007 37.732 9.40861 37.892 9.89592 38.1159C10.3814 38.339 10.7494 38.6221 11.0774 38.8742C11.3423 39.0778 11.5707 39.2535 11.8315 39.3746C12.0877 39.4936 12.3844 39.564 12.7964 39.564C13.6183 39.564 13.9945 39.2746 14.5152 38.8743C15.177 38.3655 16.0008 37.732 17.5617 37.732L17.6933 37.7358L17.8248 37.732C19.3857 37.732 20.2095 38.3655 20.8712 38.8743C21.3919 39.2746 21.7682 39.564 22.59 39.564C23.4118 39.564 23.788 39.2747 24.3088 38.8743L24.3201 38.8656C24.6453 38.6156 25.0107 38.3364 25.4905 38.1159C25.9778 37.892 26.5763 37.732 27.3554 37.732C27.7124 37.732 27.9868 37.7677 28.2449 37.8359C28.5007 37.9035 28.7346 38.0021 29.0161 38.1291C29.4211 38.3121 29.8325 38.2753 30.1973 38.1167C30.6573 37.9168 31.0449 37.5268 31.2613 37.1331C31.3501 36.9715 31.4269 36.8167 31.5074 36.6548L31.5154 36.6386ZM13.0731 28.2752C11.8944 29.4538 11.1643 31.0814 11.1643 32.876C11.1643 32.9865 11.1677 33.0913 11.1734 33.1917C11.1782 33.2751 11.1845 33.3571 11.1918 33.4379C11.4197 33.6117 11.6267 33.7603 11.861 33.8645C12.1099 33.9754 12.3995 34.0405 12.7964 34.0405C13.2085 34.0405 13.5052 33.9701 13.7614 33.8511C14.022 33.7301 14.2503 33.5545 14.5152 33.3507L14.5179 33.3492C15.1793 32.8409 16.003 32.2086 17.5617 32.2086L17.6933 32.2124L17.8248 32.2086C19.3834 32.2086 20.2071 32.8409 20.8686 33.3492L20.8712 33.3507C21.1361 33.5545 21.3644 33.7301 21.625 33.8511C21.8813 33.9701 22.178 34.0405 22.59 34.0405C22.9754 34.0405 23.2601 33.9786 23.505 33.8728C23.7347 33.7737 23.9357 33.6337 24.153 33.4694C24.1612 33.3831 24.1683 33.2957 24.1737 33.2072C24.18 33.1012 24.1839 32.9912 24.1839 32.876C24.1839 31.0814 23.4537 29.4538 22.275 28.2752C21.0963 27.0965 19.4687 26.3663 17.6741 26.3663C15.8794 26.3663 14.2518 27.0965 13.0731 28.2752ZM12.2483 11.0208C10.4828 13.3675 8.83853 15.6882 7.42086 17.9595C5.92961 20.3489 4.69224 22.6769 3.83608 24.9125C2.98265 27.1409 2.50817 29.2765 2.5389 31.2874C2.54115 31.4391 2.54676 31.5942 2.55539 31.7519C2.5641 31.91 2.57569 32.0649 2.59 32.2163C2.61365 32.4664 2.69516 32.6939 2.81798 32.8896C2.973 33.1365 3.19415 33.3333 3.44818 33.4613C3.7016 33.5889 3.98769 33.6483 4.27307 33.6214C4.48845 33.601 4.70445 33.5311 4.90669 33.4042L4.94768 33.3768L4.98486 33.3501C5.31279 33.0983 5.68086 32.8154 6.16591 32.5924C6.6533 32.3685 7.25184 32.2086 8.031 32.2086C8.25011 32.2086 8.45522 32.2217 8.64774 32.2452C8.77242 32.2605 8.8919 32.2802 9.00663 32.3039C9.15286 30.0674 10.149 28.0588 11.6747 26.5995C13.2355 25.1065 15.3498 24.1882 17.6741 24.1882C20.0005 24.1882 22.1162 25.1079 23.6773 26.6028C25.2024 28.0631 26.1974 30.0734 26.3418 32.3119C26.4608 32.2864 26.5854 32.2649 26.7162 32.2483C26.9175 32.2228 27.1302 32.2086 27.3554 32.2086C28.1345 32.2086 28.7331 32.3685 29.2205 32.5924C29.7042 32.8148 30.0729 33.0981 30.4013 33.3505L30.4384 33.377L30.4791 33.4042C30.682 33.5311 30.8981 33.601 31.1135 33.6214C31.3988 33.6483 31.6849 33.5889 31.9383 33.4612C32.1923 33.3332 32.4135 33.1365 32.5686 32.8895C32.6913 32.694 32.7728 32.4664 32.7965 32.2163C32.8108 32.0649 32.8224 31.91 32.8311 31.7519C32.8397 31.5942 32.8453 31.4391 32.8476 31.2874C32.8783 29.2765 32.4038 27.1409 31.5504 24.9125C30.6942 22.6769 29.4568 20.3489 27.9656 17.9595C26.5479 15.6882 24.9037 13.3675 23.1381 11.0208C21.4116 8.72577 19.5618 6.39633 17.6933 4.06206C15.8246 6.39633 13.9749 8.72577 12.2483 11.0208Z" fill="#28445C"/>
<path d="M10.2776 21.9329C10.9407 22.2811 11.6034 22.5136 12.2643 22.5135C12.9554 22.5135 13.6153 22.2553 14.1071 21.8665C14.6586 21.4303 15.0149 20.8169 15.015 20.1787C15.015 19.5406 14.6586 18.9273 14.1071 18.4911C13.6155 18.1023 12.9555 17.8439 12.2643 17.844C10.9858 17.844 9.73988 18.6967 8.49419 19.5495L7.57495 20.1787L8.49419 20.8079C9.08542 21.2127 9.67703 21.6176 10.2776 21.9329ZM12.2397 19.4414C12.5503 19.4415 12.8443 19.5555 13.0614 19.727C13.2406 19.8688 13.3565 20.0351 13.3564 20.1787C13.3566 20.3225 13.2406 20.4888 13.0614 20.6306C12.8444 20.802 12.5503 20.9161 12.2397 20.9161C11.8892 20.916 11.4933 20.7694 11.0745 20.5496C10.8689 20.4417 10.6573 20.3155 10.4422 20.1787C11.0981 19.7619 11.7219 19.4415 12.2397 19.4414Z" fill="#28445C"/>
<path d="M21.3429 21.8665C21.8344 22.2553 22.4944 22.5136 23.1857 22.5135C24.464 22.5136 25.7101 21.6608 26.9557 20.808L27.8749 20.179L26.9557 19.5497C26.3644 19.1449 25.7728 18.7399 25.1723 18.4246C24.5092 18.0764 23.8464 17.844 23.1855 17.844C22.4943 17.844 21.8344 18.1023 21.3428 18.491C20.7913 18.9272 20.435 19.5406 20.4348 20.1787C20.4348 20.8169 20.7913 21.4303 21.3429 21.8665ZM22.3885 19.727C22.6054 19.5555 22.8996 19.4414 23.2101 19.4414C23.5607 19.4415 23.9566 19.5881 24.3753 19.8079C24.581 19.9158 24.7926 20.0421 25.0077 20.1788C24.3518 20.5956 23.7279 20.9161 23.2103 20.9161C22.8995 20.916 22.6056 20.8021 22.3885 20.6306C22.2093 20.4888 22.0934 20.3225 22.0934 20.1787C22.0932 20.0351 22.2092 19.8687 22.3885 19.727Z" fill="#28445C"/>
<path d="M17.7341 18.7449C16.9406 18.7449 16.3191 19.3748 16.3191 20.1788C16.3191 20.9828 16.9406 21.6128 17.7341 21.6128C18.5173 21.6128 19.131 20.9828 19.131 20.1788C19.131 19.3748 18.5173 18.7449 17.7341 18.7449Z" fill="#28445C"/>
<path d="M17.7249 17.4181C18.4628 17.4181 19.1722 17.006 19.6766 16.3683C20.1261 15.7997 20.4247 15.0368 20.4247 14.2375C20.4247 12.7593 19.4386 11.3187 18.4527 9.87833L17.7252 8.81543L16.9977 9.87833C16.5296 10.5619 16.0613 11.246 15.6967 11.9404C15.294 12.7071 15.0254 13.4734 15.0254 14.2375C15.0254 15.0368 15.324 15.7997 15.7736 16.3683C16.2779 17.006 16.9873 17.4181 17.7249 17.4181ZM17.2551 12.761C17.3919 12.5004 17.5519 12.2322 17.7252 11.9596C18.2532 12.7908 18.6594 13.5813 18.6594 14.2375C18.6594 14.6312 18.5149 15.0038 18.2976 15.2788C18.1178 15.5058 17.9071 15.6528 17.7249 15.6528C17.543 15.6528 17.3322 15.5058 17.1526 15.2788C16.9352 15.0039 16.7906 14.6312 16.7906 14.2375C16.7906 13.7933 16.9767 13.2916 17.2551 12.761Z" fill="#28445C"/>
</svg>
